<?xml version="1.0" encoding="UTF-8" standalone="no"?>
<!-- Created with Inkscape (http://www.inkscape.org/) -->

<svg
   version="1.1"
   id="svg4518"
   width="390.66666"
   height="324"
   viewBox="0 0 390.66666 324"
   sodipodi:docname="logo-white.svg"
   inkscape:version="1.3.2 (091e20ef0f, 2023-11-25)"
   inkscape:export-filename="logo3.png"
   inkscape:export-xdpi="64"
   inkscape:export-ydpi="64"
   xmlns:inkscape="http://www.inkscape.org/namespaces/inkscape"
   xmlns:sodipodi="http://sodipodi.sourceforge.net/DTD/sodipodi-0.dtd"
   xmlns="http://www.w3.org/2000/svg"
   xmlns:svg="http://www.w3.org/2000/svg"
   xmlns:rdf="http://www.w3.org/1999/02/22-rdf-syntax-ns#"
   xmlns:cc="http://creativecommons.org/ns#"
   xmlns:dc="http://purl.org/dc/elements/1.1/">
  <metadata
     id="metadata4524">
    <rdf:RDF>
      <cc:Work
         rdf:about="">
        <dc:format>image/svg+xml</dc:format>
        <dc:type
           rdf:resource="http://purl.org/dc/dcmitype/StillImage" />
      </cc:Work>
    </rdf:RDF>
  </metadata>
  <defs
     id="defs4522" />
  <sodipodi:namedview
     pagecolor="#ffffff"
     bordercolor="#666666"
     borderopacity="1"
     objecttolerance="10"
     gridtolerance="10"
     guidetolerance="10"
     inkscape:pageopacity="0"
     inkscape:pageshadow="2"
     inkscape:window-width="1920"
     inkscape:window-height="1017"
     id="namedview4520"
     showgrid="false"
     inkscape:zoom="1.4142136"
     inkscape:cx="351.07851"
     inkscape:cy="139.30003"
     inkscape:window-x="0"
     inkscape:window-y="26"
     inkscape:window-maximized="1"
     inkscape:current-layer="svg4518"
     inkscape:showpageshadow="2"
     inkscape:pagecheckerboard="0"
     inkscape:deskcolor="#d1d1d1" />
  <path
     sodipodi:nodetypes="ccc"
     inkscape:connector-curvature="0"
     id="path4528"
     d="m 159.46851,146.0727 c 0,0 -62.517969,-80.45501 84.37831,-135.387514 C 170.6327,60.595191 212.09003,139.98071 212.09003,139.98071"
     style="fill:#000000;stroke:#ffffff;stroke-width:7.42677;stroke-linecap:square;stroke-linejoin:round;stroke-miterlimit:4;stroke-dasharray:none;stroke-opacity:1;paint-order:normal" />
  <path
     sodipodi:nodetypes="cccc"
     inkscape:connector-curvature="0"
     id="path4603"
     d="M 229.40873,19.71581 C 185.62619,34.623325 124.38092,80.065086 158.78795,151.043 c 30.43771,33.52658 64.90131,-0.84132 58.12231,-9.36103 -10.12918,-9.03509 -45.63138,-60.294173 12.49847,-121.96616 z"
     style="fill:#c811e2;fill-opacity:1;stroke:none;stroke-width:0.933603;stroke-linecap:butt;stroke-linejoin:miter;stroke-miterlimit:4;stroke-dasharray:none;stroke-opacity:1;paint-order:fill markers stroke" />
  <path
     sodipodi:nodetypes="cscc"
     inkscape:connector-curvature="0"
     id="path4605"
     d="m 116.81965,191.58551 c 0,0 -26.086243,-5.75778 -53.697441,22.33095 -21.157606,21.52352 -30.118224,57.9279 -8.398445,83.14698 11.936222,-59.58618 82.227416,-80.52616 82.227416,-80.52616"
     style="fill:none;stroke:#ffffff;stroke-width:7.42677;stroke-linecap:butt;stroke-linejoin:round;stroke-miterlimit:4;stroke-dasharray:none;stroke-opacity:1" />
  <path
     sodipodi:nodetypes="cccc"
     inkscape:connector-curvature="0"
     id="path4607"
     d="m 138.08535,219.93979 c -41.47428,8.2667 -75.912011,30.68206 -83.361581,74.00468 -31.541116,-46.71693 18.140729,-102.79249 60.394621,-105.47793 12.92627,-1.46812 44.26862,13.94118 22.96696,31.47325 z"
     style="fill:#7f52ff;fill-opacity:1;stroke:none;stroke-width:1px;stroke-linecap:butt;stroke-linejoin:miter;stroke-opacity:1" />
  <path
     sodipodi:nodetypes="cscsc"
     inkscape:connector-curvature="0"
     id="path4609"
     d="m 166.36249,221.1796 c 0,0 -7.4457,61.55961 52.63139,78.1752 29.74008,8.22525 72.48766,2.47266 144.94027,-40.78022 -39.10367,6.56489 -70.34384,1.56181 -90.65672,-6.90818 -25.71295,-10.72169 -44.84824,-49.73158 -44.84824,-49.73158"
     style="fill:none;stroke:#ffffff;stroke-width:7.42677;stroke-linecap:butt;stroke-linejoin:round;stroke-miterlimit:4;stroke-dasharray:none;stroke-opacity:1" />
  <path
     sodipodi:nodetypes="cccc"
     inkscape:connector-curvature="0"
     id="path4611"
     d="m 162.75358,227.59544 c 18.65382,80.34894 87.67394,94.80462 190.54077,34.59223 -80.22333,11.1727 -110.2599,-22.18834 -121.35632,-61.24525 -35.03491,-35.42259 -74.05761,9.13722 -69.18445,26.65302 z"
     style="fill:#e54857;fill-opacity:1;stroke:none;stroke-width:1px;stroke-linecap:butt;stroke-linejoin:miter;stroke-opacity:1" />
</svg>
